<?xml version="1.0" encoding="utf-8"?>
<!-- Generator: Adobe Illustrator 15.0.0, SVG Export Plug-In . SVG Version: 6.00 Build 0)  -->
<!DOCTYPE svg PUBLIC "-//W3C//DTD SVG 1.1//EN" "http://www.w3.org/Graphics/SVG/1.1/DTD/svg11.dtd">
<svg version="1.1"
	 id="svg153" sodipodi:docname="C:\Documents and Settings\Daniel\My Documents\US_flag.svg" xmlns:sodipodi="http://sodipodi.sourceforge.net/DTD/sodipodi-0.dtd" sodipodi:version="0.29win"
	 xmlns="http://www.w3.org/2000/svg" xmlns:xlink="http://www.w3.org/1999/xlink" x="0px" y="0px" width="247px" height="130px"
	 viewBox="0 0 247 130" enable-background="new 0 0 247 130" xml:space="preserve">
<desc>The United States of America flag, produced by Daniel McRae</desc>
<sodipodi:namedview  id="base"></sodipodi:namedview>
<rect id="rect2385" fill="#DE2910" width="246" height="130"/>
<path id="path3157" fill="#FFDE00" d="M26.942,59.115l5.263-16.3L18.375,32.71l17.128-0.032l5.337-16.276l5.323,16.28l17.128,0.046
	L49.454,42.823l5.249,16.304L40.826,49.084L26.942,59.115z"/>
<path id="path3161" fill="#FFDE00" d="M74.696,67.924l5.779,2.322l4.017-4.76L84.068,71.7l5.768,2.35l-6.04,1.518l-0.451,6.212
	l-3.311-5.276l-6.047,1.491l3.995-4.779L74.696,67.924z"/>
<path id="path3163" fill="#FFDE00" d="M105.979,36.61l-6.136-1.07l-2.938,5.491l-0.879-6.167l-6.13-1.097l5.593-2.741l-0.851-6.17
	l4.336,4.472l5.604-2.715l-2.913,5.504L105.979,36.61z"/>
<path id="path3165" fill="#FFDE00" d="M92.948,64.512l1.914-5.926l-5.029-3.674l6.229-0.012l1.94-5.918l1.936,5.92l6.228,0.017
	l-5.032,3.669l1.909,5.928l-5.046-3.651L92.948,64.512z"/>
<g id="use2483" transform="matrix(0.99863, 0.052336, -0.052336, 0.99863, 19.4, -300.537)">
	<path id="path3161_1_" fill="#FFDE00" d="M74.999,10.381l5.65,2.621l4.26-4.543l-0.747,6.184l5.638,2.647l-6.112,1.2l-0.775,6.179
		l-3.03-5.441l-6.117,1.171l4.239-4.563L74.999,10.381z"/>
</g>
</svg>
